<svg width="518" height="138" viewBox="0 0 518 138" fill="none" xmlns="http://www.w3.org/2000/svg">
<g id="shmidt">
<mask id="path-1-outside-1_2_2" maskUnits="userSpaceOnUse" x="0.60376" y="-0.100006" width="518" height="138" fill="black">
<rect fill="white" x="0.60376" y="-0.100006" width="518" height="138"/>
<path d="M7.60376 120.29L14.2338 112.13C19.1071 115.757 23.6404 118.42 27.8338 120.12C32.1404 121.707 36.5038 122.5 40.9238 122.5C46.9304 122.5 51.9171 121.083 55.8838 118.25C59.8504 115.417 61.8338 111.847 61.8338 107.54C61.8338 104.14 60.6438 101.477 58.2638 99.55C55.8838 97.6233 52.0871 96.15 46.8738 95.13L33.2738 92.75C25.2271 91.2767 19.2771 88.7833 15.4238 85.27C11.6838 81.7567 9.81377 76.9967 9.81377 70.99C9.81377 63.85 12.5904 58.0133 18.1438 53.48C23.8104 48.9467 31.0071 46.68 39.7338 46.68C45.4004 46.68 50.7838 47.53 55.8838 49.23C60.9838 50.93 66.1404 53.5367 71.3538 57.05L65.2338 65.72C60.9271 62.66 56.6204 60.45 52.3138 59.09C48.0071 57.6167 43.6438 56.88 39.2238 56.88C33.7838 56.88 29.4204 58.07 26.1338 60.45C22.8471 62.83 21.2038 66.06 21.2038 70.14C21.2038 73.54 22.2238 76.1467 24.2638 77.96C26.4171 79.7733 30.1571 81.1333 35.4838 82.04L49.4238 84.59C57.6971 86.0633 63.7604 88.6133 67.6138 92.24C71.5804 95.8667 73.5638 100.74 73.5638 106.86C73.5638 114 70.4471 120.063 64.2138 125.05C58.0938 130.037 50.4438 132.53 41.2638 132.53C34.4638 132.53 28.1738 131.51 22.3938 129.47C16.6138 127.317 11.6838 124.257 7.60376 120.29Z"/>
<path d="M92.459 131V9.44999L104.869 6.89999V61.47C108.042 56.5967 111.839 52.9133 116.259 50.42C120.679 47.9267 125.666 46.68 131.219 46.68C140.059 46.68 147.256 49.5133 152.809 55.18C158.476 60.8467 161.309 68.2133 161.309 77.28V131H148.899V80.85C148.899 73.5967 146.859 67.8167 142.779 63.51C138.812 59.2033 133.429 57.05 126.629 57.05C122.096 57.05 117.959 58.1267 114.219 60.28C110.479 62.4333 107.362 65.6067 104.869 69.8V131H92.459Z"/>
<path d="M186.258 131V48.04H198.668V60.96C201.841 56.2 205.468 52.63 209.548 50.25C213.628 47.87 218.218 46.68 223.318 46.68C229.098 46.68 234.198 48.1533 238.618 51.1C243.151 54.0467 246.551 57.9567 248.818 62.83C251.991 57.5033 255.901 53.48 260.548 50.76C265.195 48.04 270.521 46.68 276.528 46.68C284.801 46.68 291.544 49.57 296.758 55.35C302.084 61.0167 304.748 68.3833 304.748 77.45V131H292.338V80.51C292.338 73.37 290.468 67.7033 286.728 63.51C283.101 59.2033 278.171 57.05 271.938 57.05C267.631 57.05 263.721 58.1267 260.208 60.28C256.695 62.4333 253.691 65.72 251.198 70.14C251.424 71.2733 251.595 72.4633 251.708 73.71C251.821 74.9567 251.878 76.2033 251.878 77.45V131H239.468V80.51C239.468 73.37 237.598 67.7033 233.858 63.51C230.118 59.2033 225.131 57.05 218.898 57.05C214.705 57.05 210.908 58.07 207.508 60.11C204.108 62.15 201.161 65.21 198.668 69.29V131H186.258Z"/>
<path d="M336.151 27.64C333.658 27.64 331.505 26.79 329.691 25.09C327.991 23.2767 327.141 21.1233 327.141 18.63C327.141 16.25 327.991 14.21 329.691 12.51C331.505 10.6967 333.658 9.78999 336.151 9.78999C338.531 9.78999 340.571 10.6967 342.271 12.51C344.085 14.21 344.991 16.25 344.991 18.63C344.991 21.1233 344.141 23.2767 342.441 25.09C340.741 26.79 338.645 27.64 336.151 27.64ZM342.271 48.04V131H329.861V48.04H342.271Z"/>
<path d="M428.743 131V119.95C425.57 123.917 421.716 126.977 417.183 129.13C412.65 131.17 407.663 132.19 402.223 132.19C396.896 132.19 391.853 131.113 387.093 128.96C382.446 126.693 378.423 123.69 375.023 119.95C371.623 116.097 368.903 111.563 366.863 106.35C364.936 101.137 363.973 95.5833 363.973 89.69C363.973 83.6833 364.936 78.0733 366.863 72.86C368.903 67.6467 371.68 63.17 375.193 59.43C378.706 55.5767 382.843 52.5733 387.603 50.42C392.363 48.1533 397.463 47.02 402.903 47.02C408.003 47.02 412.763 48.04 417.183 50.08C421.603 52.0067 425.456 54.84 428.743 58.58V9.44999L441.153 6.89999V131H428.743ZM376.213 89.52C376.213 98.5867 378.99 106.18 384.543 112.3C390.096 118.307 397.01 121.31 405.283 121.31C410.156 121.31 414.633 120.347 418.713 118.42C422.793 116.493 426.136 113.773 428.743 110.26V69.12C426.023 65.6067 422.566 62.8867 418.373 60.96C414.293 58.92 409.93 57.9 405.283 57.9C397.01 57.9 390.096 60.9033 384.543 66.91C378.99 72.9167 376.213 80.4533 376.213 89.52Z"/>
<path d="M476.518 112.3V58.24H459.348V48.04H476.518V25.26L488.928 22.37V48.04H512.728V58.24H488.928V109.07C488.928 113.49 489.835 116.663 491.648 118.59C493.575 120.517 496.692 121.48 500.998 121.48C503.152 121.48 505.078 121.31 506.778 120.97C508.478 120.63 510.462 120.063 512.728 119.27V130.32C510.462 131.113 508.082 131.68 505.588 132.02C503.095 132.36 500.658 132.53 498.278 132.53C491.138 132.53 485.698 130.83 481.958 127.43C478.332 123.917 476.518 118.873 476.518 112.3Z"/>
</mask>
<path d="M7.60376 120.29L14.2338 112.13C19.1071 115.757 23.6404 118.42 27.8338 120.12C32.1404 121.707 36.5038 122.5 40.9238 122.5C46.9304 122.5 51.9171 121.083 55.8838 118.25C59.8504 115.417 61.8338 111.847 61.8338 107.54C61.8338 104.14 60.6438 101.477 58.2638 99.55C55.8838 97.6233 52.0871 96.15 46.8738 95.13L33.2738 92.75C25.2271 91.2767 19.2771 88.7833 15.4238 85.27C11.6838 81.7567 9.81377 76.9967 9.81377 70.99C9.81377 63.85 12.5904 58.0133 18.1438 53.48C23.8104 48.9467 31.0071 46.68 39.7338 46.68C45.4004 46.68 50.7838 47.53 55.8838 49.23C60.9838 50.93 66.1404 53.5367 71.3538 57.05L65.2338 65.72C60.9271 62.66 56.6204 60.45 52.3138 59.09C48.0071 57.6167 43.6438 56.88 39.2238 56.88C33.7838 56.88 29.4204 58.07 26.1338 60.45C22.8471 62.83 21.2038 66.06 21.2038 70.14C21.2038 73.54 22.2238 76.1467 24.2638 77.96C26.4171 79.7733 30.1571 81.1333 35.4838 82.04L49.4238 84.59C57.6971 86.0633 63.7604 88.6133 67.6138 92.24C71.5804 95.8667 73.5638 100.74 73.5638 106.86C73.5638 114 70.4471 120.063 64.2138 125.05C58.0938 130.037 50.4438 132.53 41.2638 132.53C34.4638 132.53 28.1738 131.51 22.3938 129.47C16.6138 127.317 11.6838 124.257 7.60376 120.29Z" stroke="black" stroke-width="10" mask="url(#path-1-outside-1_2_2)"/>
<path d="M92.459 131V9.44999L104.869 6.89999V61.47C108.042 56.5967 111.839 52.9133 116.259 50.42C120.679 47.9267 125.666 46.68 131.219 46.68C140.059 46.68 147.256 49.5133 152.809 55.18C158.476 60.8467 161.309 68.2133 161.309 77.28V131H148.899V80.85C148.899 73.5967 146.859 67.8167 142.779 63.51C138.812 59.2033 133.429 57.05 126.629 57.05C122.096 57.05 117.959 58.1267 114.219 60.28C110.479 62.4333 107.362 65.6067 104.869 69.8V131H92.459Z" stroke="black" stroke-width="10" mask="url(#path-1-outside-1_2_2)"/>
<path d="M186.258 131V48.04H198.668V60.96C201.841 56.2 205.468 52.63 209.548 50.25C213.628 47.87 218.218 46.68 223.318 46.68C229.098 46.68 234.198 48.1533 238.618 51.1C243.151 54.0467 246.551 57.9567 248.818 62.83C251.991 57.5033 255.901 53.48 260.548 50.76C265.195 48.04 270.521 46.68 276.528 46.68C284.801 46.68 291.544 49.57 296.758 55.35C302.084 61.0167 304.748 68.3833 304.748 77.45V131H292.338V80.51C292.338 73.37 290.468 67.7033 286.728 63.51C283.101 59.2033 278.171 57.05 271.938 57.05C267.631 57.05 263.721 58.1267 260.208 60.28C256.695 62.4333 253.691 65.72 251.198 70.14C251.424 71.2733 251.595 72.4633 251.708 73.71C251.821 74.9567 251.878 76.2033 251.878 77.45V131H239.468V80.51C239.468 73.37 237.598 67.7033 233.858 63.51C230.118 59.2033 225.131 57.05 218.898 57.05C214.705 57.05 210.908 58.07 207.508 60.11C204.108 62.15 201.161 65.21 198.668 69.29V131H186.258Z" stroke="black" stroke-width="10" mask="url(#path-1-outside-1_2_2)"/>
<path d="M336.151 27.64C333.658 27.64 331.505 26.79 329.691 25.09C327.991 23.2767 327.141 21.1233 327.141 18.63C327.141 16.25 327.991 14.21 329.691 12.51C331.505 10.6967 333.658 9.78999 336.151 9.78999C338.531 9.78999 340.571 10.6967 342.271 12.51C344.085 14.21 344.991 16.25 344.991 18.63C344.991 21.1233 344.141 23.2767 342.441 25.09C340.741 26.79 338.645 27.64 336.151 27.64ZM342.271 48.04V131H329.861V48.04H342.271Z" stroke="black" stroke-width="10" mask="url(#path-1-outside-1_2_2)"/>
<path d="M428.743 131V119.95C425.57 123.917 421.716 126.977 417.183 129.13C412.65 131.17 407.663 132.19 402.223 132.19C396.896 132.19 391.853 131.113 387.093 128.96C382.446 126.693 378.423 123.69 375.023 119.95C371.623 116.097 368.903 111.563 366.863 106.35C364.936 101.137 363.973 95.5833 363.973 89.69C363.973 83.6833 364.936 78.0733 366.863 72.86C368.903 67.6467 371.68 63.17 375.193 59.43C378.706 55.5767 382.843 52.5733 387.603 50.42C392.363 48.1533 397.463 47.02 402.903 47.02C408.003 47.02 412.763 48.04 417.183 50.08C421.603 52.0067 425.456 54.84 428.743 58.58V9.44999L441.153 6.89999V131H428.743ZM376.213 89.52C376.213 98.5867 378.99 106.18 384.543 112.3C390.096 118.307 397.01 121.31 405.283 121.31C410.156 121.31 414.633 120.347 418.713 118.42C422.793 116.493 426.136 113.773 428.743 110.26V69.12C426.023 65.6067 422.566 62.8867 418.373 60.96C414.293 58.92 409.93 57.9 405.283 57.9C397.01 57.9 390.096 60.9033 384.543 66.91C378.99 72.9167 376.213 80.4533 376.213 89.52Z" stroke="black" stroke-width="10" mask="url(#path-1-outside-1_2_2)"/>
<path d="M476.518 112.3V58.24H459.348V48.04H476.518V25.26L488.928 22.37V48.04H512.728V58.24H488.928V109.07C488.928 113.49 489.835 116.663 491.648 118.59C493.575 120.517 496.692 121.48 500.998 121.48C503.152 121.48 505.078 121.31 506.778 120.97C508.478 120.63 510.462 120.063 512.728 119.27V130.32C510.462 131.113 508.082 131.68 505.588 132.02C503.095 132.36 500.658 132.53 498.278 132.53C491.138 132.53 485.698 130.83 481.958 127.43C478.332 123.917 476.518 118.873 476.518 112.3Z" stroke="black" stroke-width="10" mask="url(#path-1-outside-1_2_2)"/>
</g>
</svg>
